<?xml version="1.0" encoding="utf-8"?>
<!-- Generator: Adobe Illustrator 22.1.0, SVG Export Plug-In . SVG Version: 6.00 Build 0)  -->
<svg version="1.1" id="Layer_1" xmlns="http://www.w3.org/2000/svg" xmlns:xlink="http://www.w3.org/1999/xlink" x="0px" y="0px"
	 viewBox="0 0 118 24" style="enable-background:new 0 0 118 24;" xml:space="preserve">
<style type="text/css">
	.st0{fill:#393E43;}
</style>
<g>
	<path class="st0" d="M10.7,8.3l-1.3,2C8.5,9.7,7.5,9.4,6.5,9.4c-1,0-1.4,0.4-1.4,0.9c0,0.6,0.3,0.9,2.4,1.5
		c2.3,0.7,3.6,1.6,3.6,3.7c0,2.4-2.3,3.9-5.2,3.9c-2,0-3.8-0.7-4.9-1.8l1.7-1.9c0.9,0.7,2,1.2,3.1,1.2c1.1,0,1.7-0.4,1.7-1.1
		c0-0.8-0.4-1-2.5-1.6c-2.3-0.7-3.5-1.9-3.5-3.7c0-2,1.8-3.6,4.8-3.6C8.1,6.9,9.6,7.4,10.7,8.3z"/>
	<path class="st0" d="M23.3,14.2H16c0.2,2.1,1.2,2.7,2.7,2.7c1,0,1.8-0.3,2.8-1l1.4,2c-1.2,0.9-2.7,1.6-4.6,1.6
		c-3.9,0-5.9-2.5-5.9-6.2c0-3.5,1.9-6.3,5.5-6.3c3.4,0,5.4,2.2,5.4,6C23.4,13.3,23.3,13.8,23.3,14.2z M19.9,11.9
		c0-1.6-0.5-2.7-1.9-2.7c-1.2,0-1.9,0.8-2,2.9h3.9V11.9z"/>
	<path class="st0" d="M41.6,10.4V19h-3.5v-8c0-1.2-0.5-1.6-1-1.6c-0.8,0-1.3,0.6-1.8,1.5v8h-3.5v-8c0-1.2-0.5-1.6-1-1.6
		c-0.7,0-1.3,0.6-1.8,1.5v8h-3.5V7.3h3.1l0.2,1.4c0.9-1.2,2-1.8,3.4-1.8c1.3,0,2.3,0.7,2.8,1.9c0.9-1.2,2-1.9,3.5-1.9
		C40.3,6.9,41.6,8.2,41.6,10.4z"/>
	<path class="st0" d="M48.2,3c0,1.1-0.9,2-2.1,2C44.9,5,44,4.2,44,3s0.8-2,2.1-2C47.3,1.1,48.2,1.9,48.2,3z M47.9,19h-3.5V7.3h3.5
		V19z"/>
	<path class="st0" d="M59.9,8.3l-1.5,2.1c-0.8-0.6-1.4-0.8-2.2-0.8c-1.5,0-2.4,1-2.4,3.7c0,2.6,0.9,3.4,2.3,3.4
		c0.8,0,1.4-0.3,2.3-0.8l1.5,2.2c-1.1,0.9-2.3,1.4-4,1.4c-3.6,0-5.8-2.4-5.8-6.2c0-3.7,2.2-6.4,5.8-6.4C57.5,6.9,58.8,7.4,59.9,8.3z
		"/>
	<path class="st0" d="M72,13.2c0,3.8-2.2,6.3-5.8,6.3c-3.6,0-5.8-2.3-5.8-6.3c0-3.8,2.2-6.3,5.8-6.3S72,9.2,72,13.2z M64.1,13.1
		c0,2.6,0.7,3.7,2.1,3.7s2.1-1.1,2.1-3.7c0-2.6-0.7-3.7-2.1-3.7S64.1,10.6,64.1,13.1z"/>
	<path class="st0" d="M74.1,16V2.6l3.5-0.4v13.7c0,0.5,0.2,0.7,0.6,0.7c0.2,0,0.4,0,0.6-0.1l0.7,2.5c-0.5,0.2-1.3,0.4-2.1,0.4
		C75.3,19.4,74.1,18.2,74.1,16z"/>
	<path class="st0" d="M91.7,13.2c0,3.8-2.2,6.3-5.8,6.3c-3.6,0-5.8-2.3-5.8-6.3c0-3.8,2.2-6.3,5.8-6.3C89.5,6.9,91.7,9.2,91.7,13.2z
		 M83.8,13.1c0,2.6,0.7,3.7,2.1,3.7c1.4,0,2.1-1.1,2.1-3.7c0-2.6-0.7-3.7-2.1-3.7C84.5,9.5,83.8,10.6,83.8,13.1z"/>
	<path class="st0" d="M110,10.4V19h-3.5v-8c0-1.2-0.5-1.6-1-1.6c-0.8,0-1.3,0.6-1.8,1.5v8h-3.5v-8c0-1.2-0.5-1.6-1-1.6
		c-0.7,0-1.3,0.6-1.8,1.5v8h-3.5V7.3H97l0.2,1.4c0.9-1.2,2-1.8,3.4-1.8c1.3,0,2.3,0.7,2.8,1.9c0.9-1.2,2-1.9,3.5-1.9
		C108.8,6.9,110,8.2,110,10.4z"/>
	<path class="st0" d="M117,17.4c0,0.7-0.2,1.3-0.7,2.3l-1.4,3.2h-2l1-3.9c-0.6-0.4-0.9-1-0.9-1.7c0-1.1,0.9-2,2-2
		C116.1,15.4,117,16.3,117,17.4z M117,9.7c0,1.1-0.9,2-2,2c-1.1,0-2-0.9-2-2c0-1.1,0.9-2,2-2C116.1,7.7,117,8.6,117,9.7z"/>
</g>
</svg>
